<?xml version="1.0" encoding="utf-8"?>
<!-- Generator: Adobe Illustrator 15.1.0, SVG Export Plug-In  -->
<!DOCTYPE svg PUBLIC "-//W3C//DTD SVG 1.1//EN" "http://www.w3.org/Graphics/SVG/1.1/DTD/svg11.dtd" [
	<!ENTITY ns_flows "http://ns.adobe.com/Flows/1.0/">
]>
<svg version="1.1"
	 xmlns="http://www.w3.org/2000/svg" xmlns:xlink="http://www.w3.org/1999/xlink" xmlns:a="http://ns.adobe.com/AdobeSVGViewerExtensions/3.0/"
	 x="0px" y="0px" width="57px" height="165px" viewBox="-0.76 -0.002 57 165"
	 style="overflow:visible;enable-background:new -0.76 -0.002 57 165;" xml:space="preserve">
<defs>
</defs>
<path style="opacity:0.5;fill-rule:evenodd;clip-rule:evenodd;fill:#FFFFFF;" d="M52.949,153.153v-32.109
	c0-6.035-4.912-10.945-10.947-10.945H10.973c-6.037,0-10.947,4.91-10.947,10.945v32.109c0,6.037,4.91,10.947,10.947,10.947h31.029
	C48.037,164.101,52.949,159.19,52.949,153.153z"/>
<path style="opacity:0.5;fill-rule:evenodd;clip-rule:evenodd;fill:#FFFFFF;" d="M52.949,98.153V66.044
	c0-6.035-4.912-10.945-10.947-10.945H10.973c-6.037,0-10.947,4.91-10.947,10.945v32.109c0,6.037,4.91,10.947,10.947,10.947h31.029
	C48.037,109.101,52.949,104.19,52.949,98.153z"/>
<path style="opacity:0.5;fill-rule:evenodd;clip-rule:evenodd;fill:#FFFFFF;" d="M52.949,43.179V11.069
	c0-6.037-4.912-10.947-10.947-10.947H10.973c-6.037,0-10.947,4.91-10.947,10.947v32.109c0,6.035,4.91,10.947,10.947,10.947h31.029
	C48.037,54.126,52.949,49.214,52.949,43.179z"/>
<linearGradient id="SVGID_3_" gradientUnits="userSpaceOnUse" x1="26.502" y1="110.2246" x2="26.502" y2="162.5609">
	<stop  offset="0" style="stop-color:#799FC6"/>
	<stop  offset="0.5" style="stop-color:#4A7BB0"/>
	<stop  offset="0.51" style="stop-color:#3A62A0"/>
	<stop  offset="1" style="stop-color:#3F6BA6"/>
</linearGradient>
<path style="fill-rule:evenodd;clip-rule:evenodd;fill:url(#SVGID_3_);stroke:#145784;stroke-miterlimit:10;" d="M52.504,152.553
	c0,5.494-4.453,9.947-9.947,9.947H10.447c-5.494,0-9.947-4.453-9.947-9.947v-32.109c0-5.493,4.453-9.946,9.947-9.946h32.109
	c5.494,0,9.947,4.453,9.947,9.946V152.553z"/>
<linearGradient id="SVGID_4_" gradientUnits="userSpaceOnUse" x1="26.502" y1="55.2246" x2="26.502" y2="107.5609">
	<stop  offset="0" style="stop-color:#80B2DD"/>
	<stop  offset="0.5" style="stop-color:#64A2D5"/>
	<stop  offset="0.51" style="stop-color:#5489CD"/>
	<stop  offset="1" style="stop-color:#5891D0"/>
</linearGradient>
<path style="fill-rule:evenodd;clip-rule:evenodd;fill:url(#SVGID_4_);stroke:#145784;stroke-miterlimit:10;" d="M52.504,97.553
	c0,5.494-4.453,9.947-9.947,9.947H10.447c-5.494,0-9.947-4.453-9.947-9.947V65.443c0-5.493,4.453-9.946,9.947-9.946h32.109
	c5.494,0,9.947,4.453,9.947,9.946V97.553z"/>
<linearGradient id="SVGID_5_" gradientUnits="userSpaceOnUse" x1="26.502" y1="0.2246" x2="26.502" y2="52.5609">
	<stop  offset="0" style="stop-color:#BFDAF0"/>
	<stop  offset="0.5" style="stop-color:#8BBFE6"/>
	<stop  offset="0.51" style="stop-color:#63A8DD"/>
	<stop  offset="1" style="stop-color:#63A8DD"/>
</linearGradient>
<path style="fill-rule:evenodd;clip-rule:evenodd;fill:url(#SVGID_5_);stroke:#145784;stroke-width:0.9946;stroke-miterlimit:10;" d="
	M52.504,42.553c0,5.494-4.453,9.947-9.947,9.947H10.447c-5.494,0-9.947-4.453-9.947-9.947V10.443c0-5.493,4.453-9.946,9.947-9.946
	h32.109c5.494,0,9.947,4.453,9.947,9.946V42.553z"/>
<g id="cHX4RY_6_">
	<g style="opacity:0.5;">
		<path style="fill-rule:evenodd;clip-rule:evenodd;" d="M27.381,14.672c-0.359-0.713-0.082-3.758-0.17-4.743
			c-3.535,1.648-7.191,4.913-10.672,6.775c3.096,2.099,7.332,5.43,10.672,7.284c0-1.129,0-3.783,0-4.912
			c8.504-0.514,11.031,12.679,4.066,16.092c-5.84,2.861-12.939-0.855-13.043-7.284c-1.525,0-3.051,0-4.574,0
			c-0.076,3.59,1.529,6.43,3.557,8.64c1.896,2.066,4.74,3.977,7.623,4.404c7.812,1.156,14.525-5.077,15.246-11.519
			c0.436-3.902-0.904-7.769-2.203-9.147C35.383,17.398,32.555,14.862,27.381,14.672z"/>
	</g>
	<g>
		<g>
			<g>
				<path style="fill-rule:evenodd;clip-rule:evenodd;fill:#FFFFFF;" d="M27.381,15.672c-0.359-0.713-0.082-3.758-0.17-4.743
					c-3.535,1.648-7.191,4.913-10.672,6.775c3.096,2.099,7.332,5.43,10.672,7.284c0-1.129,0-3.783,0-4.912
					c8.504-0.514,11.031,12.679,4.066,16.092c-5.84,2.861-12.939-0.855-13.043-7.284c-1.525,0-3.051,0-4.574,0
					c-0.076,3.59,1.529,6.43,3.557,8.64c1.896,2.066,4.74,3.977,7.623,4.404c7.812,1.156,14.525-5.077,15.246-11.519
					c0.436-3.902-0.904-7.769-2.203-9.147C35.383,18.398,32.555,15.862,27.381,15.672z"/>
			</g>
		</g>
	</g>
</g>
<g id="cHX4RY_5_">
	<g style="opacity:0.5;">
		<path style="fill-rule:evenodd;clip-rule:evenodd;" d="M27.381,69.672c-0.359-0.713-0.082-3.758-0.17-4.743
			c-3.535,1.648-7.191,4.913-10.672,6.775c3.096,2.099,7.332,5.43,10.672,7.284c0-1.129,0-3.783,0-4.912
			c8.504-0.514,11.031,12.679,4.066,16.092c-5.84,2.861-12.939-0.855-13.043-7.284c-1.525,0-3.051,0-4.574,0
			c-0.076,3.59,1.529,6.43,3.557,8.64c1.896,2.066,4.74,3.977,7.623,4.404c7.812,1.156,14.525-5.077,15.246-11.519
			c0.436-3.902-0.904-7.769-2.203-9.147C35.383,72.398,32.555,69.862,27.381,69.672z"/>
	</g>
	<g>
		<g>
			<g>
				<path style="fill-rule:evenodd;clip-rule:evenodd;fill:#FFFFFF;" d="M27.381,70.672c-0.359-0.713-0.082-3.758-0.17-4.743
					c-3.535,1.648-7.191,4.913-10.672,6.775c3.096,2.099,7.332,5.43,10.672,7.284c0-1.129,0-3.783,0-4.912
					c8.504-0.514,11.031,12.679,4.066,16.092c-5.84,2.861-12.939-0.855-13.043-7.284c-1.525,0-3.051,0-4.574,0
					c-0.076,3.59,1.529,6.43,3.557,8.64c1.896,2.066,4.74,3.977,7.623,4.404c7.812,1.156,14.525-5.077,15.246-11.519
					c0.436-3.902-0.904-7.769-2.203-9.147C35.383,73.398,32.555,70.862,27.381,70.672z"/>
			</g>
		</g>
	</g>
</g>
<g id="cHX4RY_4_">
	<g style="opacity:0.5;">
		<path style="fill-rule:evenodd;clip-rule:evenodd;" d="M27.381,124.672c-0.359-0.713-0.082-3.758-0.17-4.743
			c-3.535,1.648-7.191,4.913-10.672,6.775c3.096,2.099,7.332,5.43,10.672,7.284c0-1.129,0-3.783,0-4.912
			c8.504-0.514,11.031,12.679,4.066,16.092c-5.84,2.861-12.939-0.855-13.043-7.284c-1.525,0-3.051,0-4.574,0
			c-0.076,3.59,1.529,6.43,3.557,8.64c1.896,2.066,4.74,3.977,7.623,4.404c7.812,1.156,14.525-5.077,15.246-11.519
			c0.436-3.902-0.904-7.769-2.203-9.147C35.383,127.398,32.555,124.862,27.381,124.672z"/>
	</g>
	<g>
		<g>
			<g>
				<path style="fill-rule:evenodd;clip-rule:evenodd;fill:#FFFFFF;" d="M27.381,125.672c-0.359-0.713-0.082-3.758-0.17-4.743
					c-3.535,1.648-7.191,4.913-10.672,6.775c3.096,2.099,7.332,5.43,10.672,7.284c0-1.129,0-3.783,0-4.912
					c8.504-0.514,11.031,12.679,4.066,16.092c-5.84,2.861-12.939-0.855-13.043-7.284c-1.525,0-3.051,0-4.574,0
					c-0.076,3.59,1.529,6.43,3.557,8.64c1.896,2.066,4.74,3.977,7.623,4.404c7.812,1.156,14.525-5.077,15.246-11.519
					c0.436-3.902-0.904-7.769-2.203-9.147C35.383,128.398,32.555,125.862,27.381,125.672z"/>
			</g>
		</g>
	</g>
</g>
</svg>
