<?xml version="1.0" encoding="utf-8"?>
<!-- Generator: Adobe Illustrator 15.1.0, SVG Export Plug-In  -->
<!DOCTYPE svg PUBLIC "-//W3C//DTD SVG 1.1//EN" "http://www.w3.org/Graphics/SVG/1.1/DTD/svg11.dtd" [
	<!ENTITY ns_flows "http://ns.adobe.com/Flows/1.0/">
]>
<svg version="1.1"
	 xmlns="http://www.w3.org/2000/svg" xmlns:xlink="http://www.w3.org/1999/xlink" xmlns:a="http://ns.adobe.com/AdobeSVGViewerExtensions/3.0/"
	 x="0px" y="0px" width="105px" height="330px" viewBox="-0.811 -0.002 105 330"
	 style="overflow:visible;enable-background:new -0.811 -0.002 105 330;" xml:space="preserve">
<defs>
</defs>
<path style="opacity:0.5;fill-rule:evenodd;clip-rule:evenodd;fill:#FFFFFF;" d="M11.24,54.502c-5.952,0-10.795-4.911-10.795-10.947
	V11.445c0-6.036,4.843-10.947,10.795-10.947h80.973c5.953,0,10.795,4.911,10.795,10.947v32.109c0,6.036-4.842,10.947-10.795,10.947
	H11.24z"/>
<linearGradient id="SVGID_1_" gradientUnits="userSpaceOnUse" x1="51.5029" y1="0.2246" x2="51.5029" y2="52.5619">
	<stop  offset="0" style="stop-color:#BFDAF0"/>
	<stop  offset="0.5" style="stop-color:#8BBFE6"/>
	<stop  offset="0.51" style="stop-color:#63A8DD"/>
	<stop  offset="1" style="stop-color:#63A8DD"/>
</linearGradient>
<path style="fill-rule:evenodd;clip-rule:evenodd;fill:url(#SVGID_1_);stroke:#145784;stroke-width:0.9946;stroke-miterlimit:10;" d="
	M102.506,42.554c0,5.494-4.453,9.947-9.947,9.947H10.446c-5.493,0-9.946-4.453-9.946-9.947V10.444c0-5.494,4.453-9.947,9.946-9.947
	h82.112c5.494,0,9.947,4.453,9.947,9.947V42.554z"/>
<path style="opacity:0.5;fill-rule:evenodd;clip-rule:evenodd;fill:#FFFFFF;" d="M11.24,109.5c-5.952,0-10.795-4.911-10.795-10.947
	V66.443c0-6.036,4.843-10.947,10.795-10.947h80.973c5.953,0,10.795,4.911,10.795,10.947v32.109c0,6.036-4.842,10.947-10.795,10.947
	H11.24z"/>
<linearGradient id="SVGID_10_" gradientUnits="userSpaceOnUse" x1="51.5029" y1="55.2227" x2="51.5029" y2="107.5599">
	<stop  offset="0" style="stop-color:#80B2DD"/>
	<stop  offset="0.5" style="stop-color:#64A2D5"/>
	<stop  offset="0.51" style="stop-color:#5489CD"/>
	<stop  offset="1" style="stop-color:#5891D0"/>
</linearGradient>
<path style="fill-rule:evenodd;clip-rule:evenodd;fill:url(#SVGID_10_);stroke:#145784;stroke-miterlimit:10;" d="M102.506,97.552
	c0,5.494-4.453,9.947-9.947,9.947H10.446c-5.493,0-9.946-4.453-9.946-9.947V65.442c0-5.494,4.453-9.947,9.946-9.947h82.112
	c5.494,0,9.947,4.453,9.947,9.947V97.552z"/>
<path style="opacity:0.5;fill-rule:evenodd;clip-rule:evenodd;fill:#FFFFFF;" d="M11.24,164.5c-5.952,0-10.795-4.911-10.795-10.947
	v-32.109c0-6.036,4.843-10.947,10.795-10.947h80.973c5.953,0,10.795,4.911,10.795,10.947v32.109c0,6.036-4.842,10.947-10.795,10.947
	H11.24z"/>
<linearGradient id="SVGID_11_" gradientUnits="userSpaceOnUse" x1="51.5029" y1="110.2227" x2="51.5029" y2="162.5599">
	<stop  offset="0" style="stop-color:#799FC6"/>
	<stop  offset="0.5" style="stop-color:#4A7BB0"/>
	<stop  offset="0.51" style="stop-color:#3A62A0"/>
	<stop  offset="1" style="stop-color:#3F6BA6"/>
</linearGradient>
<path style="fill-rule:evenodd;clip-rule:evenodd;fill:url(#SVGID_11_);stroke:#145784;stroke-miterlimit:10;" d="M102.506,152.552
	c0,5.494-4.453,9.947-9.947,9.947H10.446c-5.493,0-9.946-4.453-9.946-9.947v-32.109c0-5.494,4.453-9.947,9.946-9.947h82.112
	c5.494,0,9.947,4.453,9.947,9.947V152.552z"/>
<path style="opacity:0.5;fill-rule:evenodd;clip-rule:evenodd;fill:#FFFFFF;" d="M11.24,219.502
	c-5.952,0-10.795-4.911-10.795-10.947v-32.109c0-6.036,4.843-10.947,10.795-10.947h80.973c5.953,0,10.795,4.911,10.795,10.947
	v32.109c0,6.036-4.842,10.947-10.795,10.947H11.24z"/>
<linearGradient id="SVGID_12_" gradientUnits="userSpaceOnUse" x1="51.5029" y1="165.2246" x2="51.5029" y2="217.5619">
	<stop  offset="0" style="stop-color:#FBFBFB"/>
	<stop  offset="0.5" style="stop-color:#DADADA"/>
	<stop  offset="0.51" style="stop-color:#BFBFBF"/>
	<stop  offset="1" style="stop-color:#BFBFBF"/>
</linearGradient>
<path style="fill-rule:evenodd;clip-rule:evenodd;fill:url(#SVGID_12_);stroke:#575756;stroke-width:0.9946;stroke-miterlimit:10;" d="
	M102.506,207.554c0,5.494-4.453,9.947-9.947,9.947H10.446c-5.493,0-9.946-4.453-9.946-9.947v-32.109
	c0-5.494,4.453-9.947,9.946-9.947h82.112c5.494,0,9.947,4.453,9.947,9.947V207.554z"/>
<path style="opacity:0.5;fill-rule:evenodd;clip-rule:evenodd;fill:#FFFFFF;" d="M11.24,274.5c-5.952,0-10.795-4.911-10.795-10.947
	v-32.109c0-6.036,4.843-10.947,10.795-10.947h80.973c5.953,0,10.795,4.911,10.795,10.947v32.109c0,6.036-4.842,10.947-10.795,10.947
	H11.24z"/>
<linearGradient id="SVGID_13_" gradientUnits="userSpaceOnUse" x1="51.5029" y1="220.2227" x2="51.5029" y2="272.5599">
	<stop  offset="0" style="stop-color:#EEEEEE"/>
	<stop  offset="0.5" style="stop-color:#CDCDCD"/>
	<stop  offset="0.51" style="stop-color:#B3B3B3"/>
	<stop  offset="1" style="stop-color:#B3B3B3"/>
</linearGradient>
<path style="fill-rule:evenodd;clip-rule:evenodd;fill:url(#SVGID_13_);stroke:#575756;stroke-width:0.9946;stroke-miterlimit:10;" d="
	M102.506,262.552c0,5.494-4.453,9.947-9.947,9.947H10.446c-5.493,0-9.946-4.453-9.946-9.947v-32.109
	c0-5.494,4.453-9.947,9.946-9.947h82.112c5.494,0,9.947,4.453,9.947,9.947V262.552z"/>
<path style="opacity:0.5;fill-rule:evenodd;clip-rule:evenodd;fill:#FFFFFF;" d="M11.24,329.5c-5.952,0-10.795-4.911-10.795-10.947
	v-32.109c0-6.036,4.843-10.947,10.795-10.947h80.973c5.953,0,10.795,4.911,10.795,10.947v32.109c0,6.036-4.842,10.947-10.795,10.947
	H11.24z"/>
<linearGradient id="SVGID_14_" gradientUnits="userSpaceOnUse" x1="51.5029" y1="275.2227" x2="51.5029" y2="327.5599">
	<stop  offset="0" style="stop-color:#D4D4D4"/>
	<stop  offset="0.5" style="stop-color:#B4B4B4"/>
	<stop  offset="0.51" style="stop-color:#999999"/>
	<stop  offset="1" style="stop-color:#999999"/>
</linearGradient>
<path style="fill-rule:evenodd;clip-rule:evenodd;fill:url(#SVGID_14_);stroke:#575756;stroke-width:0.9946;stroke-miterlimit:10;" d="
	M102.506,317.552c0,5.494-4.453,9.947-9.947,9.947H10.446c-5.493,0-9.946-4.453-9.946-9.947v-32.109
	c0-5.494,4.453-9.947,9.946-9.947h82.112c5.494,0,9.947,4.453,9.947,9.947V317.552z"/>
<g style="opacity:0.5;">
	<path d="M32.049,27.549l2.803,0.889c-0.43,1.562-1.145,2.723-2.144,3.481s-2.267,1.138-3.804,1.138c-1.9,0-3.463-0.649-4.688-1.948
		s-1.836-3.074-1.836-5.327c0-2.383,0.615-4.233,1.846-5.552s2.848-1.978,4.854-1.978c1.752,0,3.174,0.518,4.268,1.553
		c0.65,0.612,1.139,1.491,1.465,2.637l-2.861,0.684c-0.17-0.742-0.522-1.328-1.06-1.758s-1.19-0.645-1.958-0.645
		c-1.061,0-1.922,0.381-2.583,1.143s-0.991,1.995-0.991,3.701c0,1.81,0.326,3.099,0.977,3.867s1.498,1.152,2.539,1.152
		c0.768,0,1.43-0.244,1.982-0.732S31.809,28.597,32.049,27.549z"/>
	<path d="M40.047,18.496v5.264c0.885-1.035,1.943-1.553,3.174-1.553c0.631,0,1.201,0.117,1.709,0.352s0.891,0.534,1.147,0.898
		s0.433,0.769,0.527,1.211s0.142,1.13,0.142,2.061v6.084h-2.744v-5.479c0-1.087-0.053-1.777-0.156-2.07s-0.288-0.525-0.552-0.698
		s-0.595-0.259-0.991-0.259c-0.455,0-0.863,0.11-1.221,0.332s-0.62,0.555-0.786,1.001s-0.249,1.105-0.249,1.978v5.195h-2.744V18.496
		H40.047z"/>
	<path d="M55.535,29.512l2.734,0.459c-0.352,1.003-0.906,1.766-1.665,2.29s-1.708,0.786-2.847,0.786
		c-1.803,0-3.139-0.589-4.004-1.768c-0.684-0.944-1.025-2.136-1.025-3.574c0-1.719,0.449-3.064,1.348-4.038s2.035-1.46,3.408-1.46
		c1.543,0,2.76,0.51,3.652,1.528s1.318,2.58,1.279,4.683h-6.875c0.02,0.813,0.24,1.447,0.664,1.899s0.951,0.679,1.582,0.679
		c0.43,0,0.791-0.117,1.084-0.352S55.385,30.032,55.535,29.512z M55.691,26.738c-0.02-0.794-0.225-1.398-0.615-1.812
		s-0.865-0.62-1.426-0.62c-0.6,0-1.094,0.218-1.484,0.654s-0.582,1.028-0.576,1.777H55.691z"/>
	<path d="M69.695,25.508l-2.705,0.488c-0.092-0.54-0.298-0.947-0.62-1.221s-0.741-0.41-1.255-0.41c-0.684,0-1.229,0.236-1.636,0.708
		s-0.61,1.262-0.61,2.368c0,1.23,0.207,2.1,0.62,2.607s0.968,0.762,1.665,0.762c0.521,0,0.947-0.148,1.279-0.444
		s0.566-0.806,0.703-1.528l2.695,0.459c-0.279,1.237-0.816,2.171-1.611,2.803s-1.859,0.947-3.193,0.947
		c-1.518,0-2.727-0.479-3.628-1.436s-1.353-2.282-1.353-3.975c0-1.712,0.453-3.045,1.357-3.999s2.129-1.431,3.672-1.431
		c1.264,0,2.268,0.271,3.013,0.815S69.369,24.395,69.695,25.508z"/>
	<path d="M71.678,32.812V18.496h2.744v7.598l3.213-3.652h3.379l-3.545,3.789l3.799,6.582h-2.959l-2.607-4.658l-1.279,1.338v3.32
		H71.678z"/>
</g>
<g>
	<path style="fill:#FFFFFF;" d="M32.049,28.607l2.803,0.889c-0.43,1.562-1.145,2.723-2.144,3.481s-2.267,1.138-3.804,1.138
		c-1.9,0-3.463-0.649-4.688-1.948s-1.836-3.074-1.836-5.327c0-2.383,0.615-4.233,1.846-5.552s2.848-1.978,4.854-1.978
		c1.752,0,3.174,0.518,4.268,1.553c0.65,0.612,1.139,1.491,1.465,2.637l-2.861,0.684c-0.17-0.742-0.522-1.328-1.06-1.758
		s-1.19-0.645-1.958-0.645c-1.061,0-1.922,0.381-2.583,1.143s-0.991,1.995-0.991,3.701c0,1.81,0.326,3.099,0.977,3.867
		s1.498,1.152,2.539,1.152c0.768,0,1.43-0.244,1.982-0.732S31.809,29.655,32.049,28.607z"/>
	<path style="fill:#FFFFFF;" d="M40.047,19.555v5.264c0.885-1.035,1.943-1.553,3.174-1.553c0.631,0,1.201,0.117,1.709,0.352
		s0.891,0.534,1.147,0.898s0.433,0.769,0.527,1.211s0.142,1.13,0.142,2.061v6.084h-2.744v-5.479c0-1.087-0.053-1.777-0.156-2.07
		s-0.288-0.525-0.552-0.698s-0.595-0.259-0.991-0.259c-0.455,0-0.863,0.11-1.221,0.332s-0.62,0.555-0.786,1.001
		s-0.249,1.105-0.249,1.978v5.195h-2.744V19.555H40.047z"/>
	<path style="fill:#FFFFFF;" d="M55.535,30.57l2.734,0.459c-0.352,1.003-0.906,1.766-1.665,2.29s-1.708,0.786-2.847,0.786
		c-1.803,0-3.139-0.589-4.004-1.768c-0.684-0.944-1.025-2.136-1.025-3.574c0-1.719,0.449-3.064,1.348-4.038s2.035-1.46,3.408-1.46
		c1.543,0,2.76,0.51,3.652,1.528s1.318,2.58,1.279,4.683h-6.875c0.02,0.813,0.24,1.447,0.664,1.899s0.951,0.679,1.582,0.679
		c0.43,0,0.791-0.117,1.084-0.352S55.385,31.091,55.535,30.57z M55.691,27.797c-0.02-0.794-0.225-1.398-0.615-1.812
		s-0.865-0.62-1.426-0.62c-0.6,0-1.094,0.218-1.484,0.654s-0.582,1.028-0.576,1.777H55.691z"/>
	<path style="fill:#FFFFFF;" d="M69.695,26.566l-2.705,0.488c-0.092-0.54-0.298-0.947-0.62-1.221s-0.741-0.41-1.255-0.41
		c-0.684,0-1.229,0.236-1.636,0.708s-0.61,1.262-0.61,2.368c0,1.23,0.207,2.1,0.62,2.607s0.968,0.762,1.665,0.762
		c0.521,0,0.947-0.148,1.279-0.444s0.566-0.806,0.703-1.528l2.695,0.459c-0.279,1.237-0.816,2.171-1.611,2.803
		s-1.859,0.947-3.193,0.947c-1.518,0-2.727-0.479-3.628-1.436s-1.353-2.282-1.353-3.975c0-1.712,0.453-3.045,1.357-3.999
		s2.129-1.431,3.672-1.431c1.264,0,2.268,0.271,3.013,0.815S69.369,25.453,69.695,26.566z"/>
	<path style="fill:#FFFFFF;" d="M71.678,33.871V19.555h2.744v7.598l3.213-3.652h3.379l-3.545,3.789l3.799,6.582h-2.959l-2.607-4.658
		l-1.279,1.338v3.32H71.678z"/>
</g>
<g style="opacity:0.5;">
	<path d="M32.049,82.547l2.803,0.889c-0.43,1.562-1.145,2.723-2.144,3.481s-2.267,1.138-3.804,1.138c-1.9,0-3.463-0.649-4.688-1.948
		s-1.836-3.074-1.836-5.327c0-2.383,0.615-4.233,1.846-5.552s2.848-1.978,4.854-1.978c1.752,0,3.174,0.518,4.268,1.553
		c0.65,0.612,1.139,1.491,1.465,2.637l-2.861,0.684c-0.17-0.742-0.522-1.328-1.06-1.758s-1.19-0.645-1.958-0.645
		c-1.061,0-1.922,0.381-2.583,1.143s-0.991,1.995-0.991,3.701c0,1.81,0.326,3.099,0.977,3.867s1.498,1.152,2.539,1.152
		c0.768,0,1.43-0.244,1.982-0.732S31.809,83.595,32.049,82.547z"/>
	<path d="M40.047,73.494v5.264c0.885-1.035,1.943-1.553,3.174-1.553c0.631,0,1.201,0.117,1.709,0.352s0.891,0.534,1.147,0.898
		s0.433,0.769,0.527,1.211s0.142,1.13,0.142,2.061v6.084h-2.744v-5.479c0-1.087-0.053-1.777-0.156-2.07s-0.288-0.525-0.552-0.698
		s-0.595-0.259-0.991-0.259c-0.455,0-0.863,0.11-1.221,0.332s-0.62,0.555-0.786,1.001s-0.249,1.105-0.249,1.978v5.195h-2.744V73.494
		H40.047z"/>
	<path d="M55.535,84.51l2.734,0.459c-0.352,1.003-0.906,1.766-1.665,2.29s-1.708,0.786-2.847,0.786
		c-1.803,0-3.139-0.589-4.004-1.768c-0.684-0.944-1.025-2.136-1.025-3.574c0-1.719,0.449-3.064,1.348-4.038s2.035-1.46,3.408-1.46
		c1.543,0,2.76,0.51,3.652,1.528s1.318,2.58,1.279,4.683h-6.875c0.02,0.813,0.24,1.447,0.664,1.899s0.951,0.679,1.582,0.679
		c0.43,0,0.791-0.117,1.084-0.352S55.385,85.03,55.535,84.51z M55.691,81.736c-0.02-0.794-0.225-1.398-0.615-1.812
		s-0.865-0.62-1.426-0.62c-0.6,0-1.094,0.218-1.484,0.654s-0.582,1.028-0.576,1.777H55.691z"/>
	<path d="M69.695,80.506l-2.705,0.488c-0.092-0.54-0.298-0.947-0.62-1.221s-0.741-0.41-1.255-0.41c-0.684,0-1.229,0.236-1.636,0.708
		s-0.61,1.262-0.61,2.368c0,1.23,0.207,2.1,0.62,2.607s0.968,0.762,1.665,0.762c0.521,0,0.947-0.148,1.279-0.444
		s0.566-0.806,0.703-1.528l2.695,0.459c-0.279,1.237-0.816,2.171-1.611,2.803s-1.859,0.947-3.193,0.947
		c-1.518,0-2.727-0.479-3.628-1.436s-1.353-2.282-1.353-3.975c0-1.712,0.453-3.045,1.357-3.999s2.129-1.431,3.672-1.431
		c1.264,0,2.268,0.271,3.013,0.815S69.369,79.393,69.695,80.506z"/>
	<path d="M71.678,87.811V73.494h2.744v7.598l3.213-3.652h3.379l-3.545,3.789l3.799,6.582h-2.959l-2.607-4.658l-1.279,1.338v3.32
		H71.678z"/>
</g>
<g>
	<path style="fill:#FFFFFF;" d="M32.049,83.605l2.803,0.889c-0.43,1.562-1.145,2.723-2.144,3.481s-2.267,1.138-3.804,1.138
		c-1.9,0-3.463-0.649-4.688-1.948s-1.836-3.074-1.836-5.327c0-2.383,0.615-4.233,1.846-5.552s2.848-1.978,4.854-1.978
		c1.752,0,3.174,0.518,4.268,1.553c0.65,0.612,1.139,1.491,1.465,2.637l-2.861,0.684c-0.17-0.742-0.522-1.328-1.06-1.758
		s-1.19-0.645-1.958-0.645c-1.061,0-1.922,0.381-2.583,1.143s-0.991,1.995-0.991,3.701c0,1.81,0.326,3.099,0.977,3.867
		s1.498,1.152,2.539,1.152c0.768,0,1.43-0.244,1.982-0.732S31.809,84.653,32.049,83.605z"/>
	<path style="fill:#FFFFFF;" d="M40.047,74.553v5.264c0.885-1.035,1.943-1.553,3.174-1.553c0.631,0,1.201,0.117,1.709,0.352
		s0.891,0.534,1.147,0.898s0.433,0.769,0.527,1.211s0.142,1.13,0.142,2.061v6.084h-2.744v-5.479c0-1.087-0.053-1.777-0.156-2.07
		s-0.288-0.525-0.552-0.698s-0.595-0.259-0.991-0.259c-0.455,0-0.863,0.11-1.221,0.332s-0.62,0.555-0.786,1.001
		s-0.249,1.105-0.249,1.978v5.195h-2.744V74.553H40.047z"/>
	<path style="fill:#FFFFFF;" d="M55.535,85.568l2.734,0.459c-0.352,1.003-0.906,1.766-1.665,2.29s-1.708,0.786-2.847,0.786
		c-1.803,0-3.139-0.589-4.004-1.768c-0.684-0.944-1.025-2.136-1.025-3.574c0-1.719,0.449-3.064,1.348-4.038s2.035-1.46,3.408-1.46
		c1.543,0,2.76,0.51,3.652,1.528s1.318,2.58,1.279,4.683h-6.875c0.02,0.813,0.24,1.447,0.664,1.899s0.951,0.679,1.582,0.679
		c0.43,0,0.791-0.117,1.084-0.352S55.385,86.089,55.535,85.568z M55.691,82.795c-0.02-0.794-0.225-1.398-0.615-1.812
		s-0.865-0.62-1.426-0.62c-0.6,0-1.094,0.218-1.484,0.654s-0.582,1.028-0.576,1.777H55.691z"/>
	<path style="fill:#FFFFFF;" d="M69.695,81.564l-2.705,0.488c-0.092-0.54-0.298-0.947-0.62-1.221s-0.741-0.41-1.255-0.41
		c-0.684,0-1.229,0.236-1.636,0.708s-0.61,1.262-0.61,2.368c0,1.23,0.207,2.1,0.62,2.607s0.968,0.762,1.665,0.762
		c0.521,0,0.947-0.148,1.279-0.444s0.566-0.806,0.703-1.528l2.695,0.459c-0.279,1.237-0.816,2.171-1.611,2.803
		s-1.859,0.947-3.193,0.947c-1.518,0-2.727-0.479-3.628-1.436s-1.353-2.282-1.353-3.975c0-1.712,0.453-3.045,1.357-3.999
		s2.129-1.431,3.672-1.431c1.264,0,2.268,0.271,3.013,0.815S69.369,80.451,69.695,81.564z"/>
	<path style="fill:#FFFFFF;" d="M71.678,88.869V74.553h2.744v7.598l3.213-3.652h3.379l-3.545,3.789l3.799,6.582h-2.959l-2.607-4.658
		l-1.279,1.338v3.32H71.678z"/>
</g>
<g style="opacity:0.5;">
	<path d="M32.049,137.547l2.803,0.889c-0.43,1.562-1.145,2.723-2.144,3.481s-2.267,1.138-3.804,1.138
		c-1.9,0-3.463-0.649-4.688-1.948s-1.836-3.074-1.836-5.327c0-2.383,0.615-4.233,1.846-5.552s2.848-1.978,4.854-1.978
		c1.752,0,3.174,0.518,4.268,1.553c0.65,0.612,1.139,1.491,1.465,2.637l-2.861,0.684c-0.17-0.742-0.522-1.328-1.06-1.758
		s-1.19-0.645-1.958-0.645c-1.061,0-1.922,0.381-2.583,1.143s-0.991,1.995-0.991,3.701c0,1.81,0.326,3.099,0.977,3.867
		s1.498,1.152,2.539,1.152c0.768,0,1.43-0.244,1.982-0.732S31.809,138.595,32.049,137.547z"/>
	<path d="M40.047,128.494v5.264c0.885-1.035,1.943-1.553,3.174-1.553c0.631,0,1.201,0.117,1.709,0.352s0.891,0.534,1.147,0.898
		s0.433,0.769,0.527,1.211s0.142,1.13,0.142,2.061v6.084h-2.744v-5.479c0-1.087-0.053-1.777-0.156-2.07s-0.288-0.525-0.552-0.698
		s-0.595-0.259-0.991-0.259c-0.455,0-0.863,0.11-1.221,0.332s-0.62,0.555-0.786,1.001s-0.249,1.105-0.249,1.978v5.195h-2.744
		v-14.316H40.047z"/>
	<path d="M55.535,139.51l2.734,0.459c-0.352,1.003-0.906,1.766-1.665,2.29s-1.708,0.786-2.847,0.786
		c-1.803,0-3.139-0.589-4.004-1.768c-0.684-0.944-1.025-2.136-1.025-3.574c0-1.719,0.449-3.064,1.348-4.038s2.035-1.46,3.408-1.46
		c1.543,0,2.76,0.51,3.652,1.528s1.318,2.58,1.279,4.683h-6.875c0.02,0.813,0.24,1.447,0.664,1.899s0.951,0.679,1.582,0.679
		c0.43,0,0.791-0.117,1.084-0.352S55.385,140.03,55.535,139.51z M55.691,136.736c-0.02-0.794-0.225-1.398-0.615-1.812
		s-0.865-0.62-1.426-0.62c-0.6,0-1.094,0.218-1.484,0.654s-0.582,1.028-0.576,1.777H55.691z"/>
	<path d="M69.695,135.506l-2.705,0.488c-0.092-0.54-0.298-0.947-0.62-1.221s-0.741-0.41-1.255-0.41
		c-0.684,0-1.229,0.236-1.636,0.708s-0.61,1.262-0.61,2.368c0,1.23,0.207,2.1,0.62,2.607s0.968,0.762,1.665,0.762
		c0.521,0,0.947-0.148,1.279-0.444s0.566-0.806,0.703-1.528l2.695,0.459c-0.279,1.237-0.816,2.171-1.611,2.803
		s-1.859,0.947-3.193,0.947c-1.518,0-2.727-0.479-3.628-1.436s-1.353-2.282-1.353-3.975c0-1.712,0.453-3.045,1.357-3.999
		s2.129-1.431,3.672-1.431c1.264,0,2.268,0.271,3.013,0.815S69.369,134.393,69.695,135.506z"/>
	<path d="M71.678,142.811v-14.316h2.744v7.598l3.213-3.652h3.379l-3.545,3.789l3.799,6.582h-2.959l-2.607-4.658l-1.279,1.338v3.32
		H71.678z"/>
</g>
<g>
	<path style="fill:#FFFFFF;" d="M32.049,138.605l2.803,0.889c-0.43,1.562-1.145,2.723-2.144,3.481s-2.267,1.138-3.804,1.138
		c-1.9,0-3.463-0.649-4.688-1.948s-1.836-3.074-1.836-5.327c0-2.383,0.615-4.233,1.846-5.552s2.848-1.978,4.854-1.978
		c1.752,0,3.174,0.518,4.268,1.553c0.65,0.612,1.139,1.491,1.465,2.637l-2.861,0.684c-0.17-0.742-0.522-1.328-1.06-1.758
		s-1.19-0.645-1.958-0.645c-1.061,0-1.922,0.381-2.583,1.143s-0.991,1.995-0.991,3.701c0,1.81,0.326,3.099,0.977,3.867
		s1.498,1.152,2.539,1.152c0.768,0,1.43-0.244,1.982-0.732S31.809,139.653,32.049,138.605z"/>
	<path style="fill:#FFFFFF;" d="M40.047,129.553v5.264c0.885-1.035,1.943-1.553,3.174-1.553c0.631,0,1.201,0.117,1.709,0.352
		s0.891,0.534,1.147,0.898s0.433,0.769,0.527,1.211s0.142,1.13,0.142,2.061v6.084h-2.744v-5.479c0-1.087-0.053-1.777-0.156-2.07
		s-0.288-0.525-0.552-0.698s-0.595-0.259-0.991-0.259c-0.455,0-0.863,0.11-1.221,0.332s-0.62,0.555-0.786,1.001
		s-0.249,1.105-0.249,1.978v5.195h-2.744v-14.316H40.047z"/>
	<path style="fill:#FFFFFF;" d="M55.535,140.568l2.734,0.459c-0.352,1.003-0.906,1.766-1.665,2.29s-1.708,0.786-2.847,0.786
		c-1.803,0-3.139-0.589-4.004-1.768c-0.684-0.944-1.025-2.136-1.025-3.574c0-1.719,0.449-3.064,1.348-4.038s2.035-1.46,3.408-1.46
		c1.543,0,2.76,0.51,3.652,1.528s1.318,2.58,1.279,4.683h-6.875c0.02,0.813,0.24,1.447,0.664,1.899s0.951,0.679,1.582,0.679
		c0.43,0,0.791-0.117,1.084-0.352S55.385,141.089,55.535,140.568z M55.691,137.795c-0.02-0.794-0.225-1.398-0.615-1.812
		s-0.865-0.62-1.426-0.62c-0.6,0-1.094,0.218-1.484,0.654s-0.582,1.028-0.576,1.777H55.691z"/>
	<path style="fill:#FFFFFF;" d="M69.695,136.564l-2.705,0.488c-0.092-0.54-0.298-0.947-0.62-1.221s-0.741-0.41-1.255-0.41
		c-0.684,0-1.229,0.236-1.636,0.708s-0.61,1.262-0.61,2.368c0,1.23,0.207,2.1,0.62,2.607s0.968,0.762,1.665,0.762
		c0.521,0,0.947-0.148,1.279-0.444s0.566-0.806,0.703-1.528l2.695,0.459c-0.279,1.237-0.816,2.171-1.611,2.803
		s-1.859,0.947-3.193,0.947c-1.518,0-2.727-0.479-3.628-1.436s-1.353-2.282-1.353-3.975c0-1.712,0.453-3.045,1.357-3.999
		s2.129-1.431,3.672-1.431c1.264,0,2.268,0.271,3.013,0.815S69.369,135.451,69.695,136.564z"/>
	<path style="fill:#FFFFFF;" d="M71.678,143.869v-14.316h2.744v7.598l3.213-3.652h3.379l-3.545,3.789l3.799,6.582h-2.959
		l-2.607-4.658l-1.279,1.338v3.32H71.678z"/>
</g>
<g style="opacity:0.8;">
	<path style="fill:#FFFFFF;" d="M19.544,185.493h2.891v7.754c0,1.23,0.036,2.028,0.107,2.393c0.124,0.586,0.419,1.057,0.884,1.411
		s1.102,0.532,1.909,0.532c0.82,0,1.438-0.168,1.855-0.503s0.667-0.747,0.752-1.235s0.127-1.299,0.127-2.432v-7.92h2.891v7.52
		c0,1.719-0.078,2.933-0.234,3.643s-0.444,1.309-0.864,1.797s-0.981,0.877-1.685,1.167s-1.621,0.435-2.754,0.435
		c-1.367,0-2.403-0.158-3.11-0.474s-1.265-0.726-1.675-1.23s-0.681-1.033-0.811-1.587c-0.188-0.82-0.283-2.031-0.283-3.633V185.493z
		"/>
	<path style="fill:#FFFFFF;" d="M43.421,199.81h-2.744v-5.293c0-1.12-0.059-1.844-0.176-2.173s-0.308-0.584-0.571-0.767
		s-0.581-0.273-0.952-0.273c-0.476,0-0.901,0.13-1.279,0.391s-0.636,0.605-0.776,1.035s-0.21,1.224-0.21,2.383v4.697h-2.744v-10.371
		h2.549v1.523c0.905-1.172,2.044-1.758,3.418-1.758c0.605,0,1.159,0.109,1.66,0.327s0.88,0.496,1.138,0.835s0.436,0.723,0.537,1.152
		s0.151,1.045,0.151,1.846V199.81z"/>
	<path style="fill:#FFFFFF;" d="M46.204,199.81v-14.316h2.744v14.316H46.204z"/>
	<path style="fill:#FFFFFF;" d="M51.126,194.478c0-0.911,0.225-1.794,0.674-2.646s1.085-1.504,1.909-1.953s1.743-0.674,2.759-0.674
		c1.569,0,2.854,0.51,3.857,1.528s1.504,2.307,1.504,3.862c0,1.569-0.507,2.869-1.519,3.901s-2.287,1.548-3.823,1.548
		c-0.95,0-1.856-0.215-2.72-0.645s-1.519-1.06-1.968-1.89S51.126,195.669,51.126,194.478z M53.938,194.624
		c0,1.028,0.244,1.816,0.732,2.363s1.091,0.82,1.807,0.82s1.317-0.273,1.802-0.82s0.728-1.341,0.728-2.383
		c0-1.016-0.243-1.797-0.728-2.344s-1.086-0.82-1.802-0.82s-1.318,0.273-1.807,0.82S53.938,193.596,53.938,194.624z"/>
	<path style="fill:#FFFFFF;" d="M73.021,192.505l-2.705,0.488c-0.091-0.54-0.298-0.947-0.62-1.221s-0.74-0.41-1.255-0.41
		c-0.684,0-1.229,0.236-1.636,0.708s-0.61,1.262-0.61,2.368c0,1.23,0.206,2.1,0.62,2.607s0.969,0.762,1.665,0.762
		c0.521,0,0.947-0.148,1.279-0.444s0.566-0.806,0.703-1.528l2.695,0.459c-0.28,1.237-0.817,2.171-1.611,2.803
		s-1.858,0.947-3.193,0.947c-1.517,0-2.726-0.479-3.628-1.436s-1.353-2.282-1.353-3.975c0-1.712,0.452-3.045,1.357-3.999
		s2.129-1.431,3.672-1.431c1.263,0,2.267,0.271,3.013,0.815S72.695,191.392,73.021,192.505z"/>
	<path style="fill:#FFFFFF;" d="M75.003,199.81v-14.316h2.744v7.598l3.213-3.652h3.379l-3.545,3.789l3.799,6.582h-2.959
		l-2.607-4.658l-1.279,1.338v3.32H75.003z"/>
</g>
<g>
	<path style="fill:#FF0000;" d="M19.544,184.553h2.891v7.754c0,1.23,0.036,2.028,0.107,2.393c0.124,0.586,0.419,1.057,0.884,1.411
		s1.102,0.532,1.909,0.532c0.82,0,1.438-0.168,1.855-0.503s0.667-0.747,0.752-1.235s0.127-1.299,0.127-2.432v-7.92h2.891v7.52
		c0,1.719-0.078,2.933-0.234,3.643s-0.444,1.309-0.864,1.797s-0.981,0.877-1.685,1.167s-1.621,0.435-2.754,0.435
		c-1.367,0-2.403-0.158-3.11-0.474s-1.265-0.726-1.675-1.23s-0.681-1.033-0.811-1.587c-0.188-0.82-0.283-2.031-0.283-3.633V184.553z
		"/>
	<path style="fill:#FF0000;" d="M43.421,198.869h-2.744v-5.293c0-1.12-0.059-1.844-0.176-2.173s-0.308-0.584-0.571-0.767
		s-0.581-0.273-0.952-0.273c-0.476,0-0.901,0.13-1.279,0.391s-0.636,0.605-0.776,1.035s-0.21,1.224-0.21,2.383v4.697h-2.744v-10.371
		h2.549v1.523c0.905-1.172,2.044-1.758,3.418-1.758c0.605,0,1.159,0.109,1.66,0.327s0.88,0.496,1.138,0.835s0.436,0.723,0.537,1.152
		s0.151,1.045,0.151,1.846V198.869z"/>
	<path style="fill:#FF0000;" d="M46.204,198.869v-14.316h2.744v14.316H46.204z"/>
	<path style="fill:#FF0000;" d="M51.126,193.537c0-0.911,0.225-1.794,0.674-2.646s1.085-1.504,1.909-1.953s1.743-0.674,2.759-0.674
		c1.569,0,2.854,0.51,3.857,1.528s1.504,2.307,1.504,3.862c0,1.569-0.507,2.869-1.519,3.901s-2.287,1.548-3.823,1.548
		c-0.95,0-1.856-0.215-2.72-0.645s-1.519-1.06-1.968-1.89S51.126,194.729,51.126,193.537z M53.938,193.684
		c0,1.028,0.244,1.816,0.732,2.363s1.091,0.82,1.807,0.82s1.317-0.273,1.802-0.82s0.728-1.341,0.728-2.383
		c0-1.016-0.243-1.797-0.728-2.344s-1.086-0.82-1.802-0.82s-1.318,0.273-1.807,0.82S53.938,192.655,53.938,193.684z"/>
	<path style="fill:#FF0000;" d="M73.021,191.564l-2.705,0.488c-0.091-0.54-0.298-0.947-0.62-1.221s-0.74-0.41-1.255-0.41
		c-0.684,0-1.229,0.236-1.636,0.708s-0.61,1.262-0.61,2.368c0,1.23,0.206,2.1,0.62,2.607s0.969,0.762,1.665,0.762
		c0.521,0,0.947-0.148,1.279-0.444s0.566-0.806,0.703-1.528l2.695,0.459c-0.28,1.237-0.817,2.171-1.611,2.803
		s-1.858,0.947-3.193,0.947c-1.517,0-2.726-0.479-3.628-1.436s-1.353-2.282-1.353-3.975c0-1.712,0.452-3.045,1.357-3.999
		s2.129-1.431,3.672-1.431c1.263,0,2.267,0.271,3.013,0.815S72.695,190.451,73.021,191.564z"/>
	<path style="fill:#FF0000;" d="M75.003,198.869v-14.316h2.744v7.598l3.213-3.652h3.379l-3.545,3.789l3.799,6.582h-2.959
		l-2.607-4.658l-1.279,1.338v3.32H75.003z"/>
</g>
<g style="opacity:0.8;">
	<path style="fill:#FFFFFF;" d="M19.544,240.483h2.891v7.754c0,1.23,0.036,2.028,0.107,2.393c0.124,0.586,0.419,1.057,0.884,1.411
		s1.102,0.532,1.909,0.532c0.82,0,1.438-0.168,1.855-0.503s0.667-0.747,0.752-1.235s0.127-1.299,0.127-2.432v-7.92h2.891v7.52
		c0,1.719-0.078,2.933-0.234,3.643s-0.444,1.309-0.864,1.797s-0.981,0.877-1.685,1.167s-1.621,0.435-2.754,0.435
		c-1.367,0-2.403-0.158-3.11-0.474s-1.265-0.726-1.675-1.23s-0.681-1.033-0.811-1.587c-0.188-0.82-0.283-2.031-0.283-3.633V240.483z
		"/>
	<path style="fill:#FFFFFF;" d="M43.421,254.8h-2.744v-5.293c0-1.12-0.059-1.844-0.176-2.173s-0.308-0.584-0.571-0.767
		s-0.581-0.273-0.952-0.273c-0.476,0-0.901,0.13-1.279,0.391s-0.636,0.605-0.776,1.035s-0.21,1.224-0.21,2.383v4.697h-2.744v-10.371
		h2.549v1.523c0.905-1.172,2.044-1.758,3.418-1.758c0.605,0,1.159,0.109,1.66,0.327s0.88,0.496,1.138,0.835s0.436,0.723,0.537,1.152
		s0.151,1.045,0.151,1.846V254.8z"/>
	<path style="fill:#FFFFFF;" d="M46.204,254.8v-14.316h2.744V254.8H46.204z"/>
	<path style="fill:#FFFFFF;" d="M51.126,249.468c0-0.911,0.225-1.794,0.674-2.646s1.085-1.504,1.909-1.953s1.743-0.674,2.759-0.674
		c1.569,0,2.854,0.51,3.857,1.528s1.504,2.307,1.504,3.862c0,1.569-0.507,2.869-1.519,3.901s-2.287,1.548-3.823,1.548
		c-0.95,0-1.856-0.215-2.72-0.645s-1.519-1.06-1.968-1.89S51.126,250.659,51.126,249.468z M53.938,249.614
		c0,1.028,0.244,1.816,0.732,2.363s1.091,0.82,1.807,0.82s1.317-0.273,1.802-0.82s0.728-1.341,0.728-2.383
		c0-1.016-0.243-1.797-0.728-2.344s-1.086-0.82-1.802-0.82s-1.318,0.273-1.807,0.82S53.938,248.586,53.938,249.614z"/>
	<path style="fill:#FFFFFF;" d="M73.021,247.495l-2.705,0.488c-0.091-0.54-0.298-0.947-0.62-1.221s-0.74-0.41-1.255-0.41
		c-0.684,0-1.229,0.236-1.636,0.708s-0.61,1.262-0.61,2.368c0,1.23,0.206,2.1,0.62,2.607s0.969,0.762,1.665,0.762
		c0.521,0,0.947-0.148,1.279-0.444s0.566-0.806,0.703-1.528l2.695,0.459c-0.28,1.237-0.817,2.171-1.611,2.803
		s-1.858,0.947-3.193,0.947c-1.517,0-2.726-0.479-3.628-1.436s-1.353-2.282-1.353-3.975c0-1.712,0.452-3.045,1.357-3.999
		s2.129-1.431,3.672-1.431c1.263,0,2.267,0.271,3.013,0.815S72.695,246.382,73.021,247.495z"/>
	<path style="fill:#FFFFFF;" d="M75.003,254.8v-14.316h2.744v7.598l3.213-3.652h3.379l-3.545,3.789l3.799,6.582h-2.959l-2.607-4.658
		l-1.279,1.338v3.32H75.003z"/>
</g>
<g>
	<path style="fill:#FF0000;" d="M19.544,239.543h2.891v7.754c0,1.23,0.036,2.028,0.107,2.393c0.124,0.586,0.419,1.057,0.884,1.411
		s1.102,0.532,1.909,0.532c0.82,0,1.438-0.168,1.855-0.503s0.667-0.747,0.752-1.235s0.127-1.299,0.127-2.432v-7.92h2.891v7.52
		c0,1.719-0.078,2.933-0.234,3.643s-0.444,1.309-0.864,1.797s-0.981,0.877-1.685,1.167s-1.621,0.435-2.754,0.435
		c-1.367,0-2.403-0.158-3.11-0.474s-1.265-0.726-1.675-1.23s-0.681-1.033-0.811-1.587c-0.188-0.82-0.283-2.031-0.283-3.633V239.543z
		"/>
	<path style="fill:#FF0000;" d="M43.421,253.859h-2.744v-5.293c0-1.12-0.059-1.844-0.176-2.173s-0.308-0.584-0.571-0.767
		s-0.581-0.273-0.952-0.273c-0.476,0-0.901,0.13-1.279,0.391s-0.636,0.605-0.776,1.035s-0.21,1.224-0.21,2.383v4.697h-2.744v-10.371
		h2.549v1.523c0.905-1.172,2.044-1.758,3.418-1.758c0.605,0,1.159,0.109,1.66,0.327s0.88,0.496,1.138,0.835s0.436,0.723,0.537,1.152
		s0.151,1.045,0.151,1.846V253.859z"/>
	<path style="fill:#FF0000;" d="M46.204,253.859v-14.316h2.744v14.316H46.204z"/>
	<path style="fill:#FF0000;" d="M51.126,248.527c0-0.911,0.225-1.794,0.674-2.646s1.085-1.504,1.909-1.953s1.743-0.674,2.759-0.674
		c1.569,0,2.854,0.51,3.857,1.528s1.504,2.307,1.504,3.862c0,1.569-0.507,2.869-1.519,3.901s-2.287,1.548-3.823,1.548
		c-0.95,0-1.856-0.215-2.72-0.645s-1.519-1.06-1.968-1.89S51.126,249.719,51.126,248.527z M53.938,248.674
		c0,1.028,0.244,1.816,0.732,2.363s1.091,0.82,1.807,0.82s1.317-0.273,1.802-0.82s0.728-1.341,0.728-2.383
		c0-1.016-0.243-1.797-0.728-2.344s-1.086-0.82-1.802-0.82s-1.318,0.273-1.807,0.82S53.938,247.646,53.938,248.674z"/>
	<path style="fill:#FF0000;" d="M73.021,246.555l-2.705,0.488c-0.091-0.54-0.298-0.947-0.62-1.221s-0.74-0.41-1.255-0.41
		c-0.684,0-1.229,0.236-1.636,0.708s-0.61,1.262-0.61,2.368c0,1.23,0.206,2.1,0.62,2.607s0.969,0.762,1.665,0.762
		c0.521,0,0.947-0.148,1.279-0.444s0.566-0.806,0.703-1.528l2.695,0.459c-0.28,1.237-0.817,2.171-1.611,2.803
		s-1.858,0.947-3.193,0.947c-1.517,0-2.726-0.479-3.628-1.436s-1.353-2.282-1.353-3.975c0-1.712,0.452-3.045,1.357-3.999
		s2.129-1.431,3.672-1.431c1.263,0,2.267,0.271,3.013,0.815S72.695,245.441,73.021,246.555z"/>
	<path style="fill:#FF0000;" d="M75.003,253.859v-14.316h2.744v7.598l3.213-3.652h3.379l-3.545,3.789l3.799,6.582h-2.959
		l-2.607-4.658l-1.279,1.338v3.32H75.003z"/>
</g>
<g style="opacity:0.8;">
	<path style="fill:#FFFFFF;" d="M19.544,295.49h2.891v7.754c0,1.23,0.036,2.028,0.107,2.393c0.124,0.586,0.419,1.057,0.884,1.411
		s1.102,0.532,1.909,0.532c0.82,0,1.438-0.168,1.855-0.503s0.667-0.747,0.752-1.235s0.127-1.299,0.127-2.432v-7.92h2.891v7.52
		c0,1.719-0.078,2.933-0.234,3.643s-0.444,1.309-0.864,1.797s-0.981,0.877-1.685,1.167s-1.621,0.435-2.754,0.435
		c-1.367,0-2.403-0.158-3.11-0.474s-1.265-0.726-1.675-1.23s-0.681-1.033-0.811-1.587c-0.188-0.82-0.283-2.031-0.283-3.633V295.49z"
		/>
	<path style="fill:#FFFFFF;" d="M43.421,309.807h-2.744v-5.293c0-1.12-0.059-1.844-0.176-2.173s-0.308-0.584-0.571-0.767
		s-0.581-0.273-0.952-0.273c-0.476,0-0.901,0.13-1.279,0.391s-0.636,0.605-0.776,1.035s-0.21,1.224-0.21,2.383v4.697h-2.744v-10.371
		h2.549v1.523c0.905-1.172,2.044-1.758,3.418-1.758c0.605,0,1.159,0.109,1.66,0.327s0.88,0.496,1.138,0.835s0.436,0.723,0.537,1.152
		s0.151,1.045,0.151,1.846V309.807z"/>
	<path style="fill:#FFFFFF;" d="M46.204,309.807V295.49h2.744v14.316H46.204z"/>
	<path style="fill:#FFFFFF;" d="M51.126,304.475c0-0.911,0.225-1.794,0.674-2.646s1.085-1.504,1.909-1.953s1.743-0.674,2.759-0.674
		c1.569,0,2.854,0.51,3.857,1.528s1.504,2.307,1.504,3.862c0,1.569-0.507,2.869-1.519,3.901s-2.287,1.548-3.823,1.548
		c-0.95,0-1.856-0.215-2.72-0.645s-1.519-1.06-1.968-1.89S51.126,305.666,51.126,304.475z M53.938,304.621
		c0,1.028,0.244,1.816,0.732,2.363s1.091,0.82,1.807,0.82s1.317-0.273,1.802-0.82s0.728-1.341,0.728-2.383
		c0-1.016-0.243-1.797-0.728-2.344s-1.086-0.82-1.802-0.82s-1.318,0.273-1.807,0.82S53.938,303.593,53.938,304.621z"/>
	<path style="fill:#FFFFFF;" d="M73.021,302.502l-2.705,0.488c-0.091-0.54-0.298-0.947-0.62-1.221s-0.74-0.41-1.255-0.41
		c-0.684,0-1.229,0.236-1.636,0.708s-0.61,1.262-0.61,2.368c0,1.23,0.206,2.1,0.62,2.607s0.969,0.762,1.665,0.762
		c0.521,0,0.947-0.148,1.279-0.444s0.566-0.806,0.703-1.528l2.695,0.459c-0.28,1.237-0.817,2.171-1.611,2.803
		s-1.858,0.947-3.193,0.947c-1.517,0-2.726-0.479-3.628-1.436s-1.353-2.282-1.353-3.975c0-1.712,0.452-3.045,1.357-3.999
		s2.129-1.431,3.672-1.431c1.263,0,2.267,0.271,3.013,0.815S72.695,301.389,73.021,302.502z"/>
	<path style="fill:#FFFFFF;" d="M75.003,309.807V295.49h2.744v7.598l3.213-3.652h3.379l-3.545,3.789l3.799,6.582h-2.959
		l-2.607-4.658l-1.279,1.338v3.32H75.003z"/>
</g>
<g>
	<path style="fill:#FF0000;" d="M19.544,294.55h2.891v7.754c0,1.23,0.036,2.028,0.107,2.393c0.124,0.586,0.419,1.057,0.884,1.411
		s1.102,0.532,1.909,0.532c0.82,0,1.438-0.168,1.855-0.503s0.667-0.747,0.752-1.235s0.127-1.299,0.127-2.432v-7.92h2.891v7.52
		c0,1.719-0.078,2.933-0.234,3.643s-0.444,1.309-0.864,1.797s-0.981,0.877-1.685,1.167s-1.621,0.435-2.754,0.435
		c-1.367,0-2.403-0.158-3.11-0.474s-1.265-0.726-1.675-1.23s-0.681-1.033-0.811-1.587c-0.188-0.82-0.283-2.031-0.283-3.633V294.55z"
		/>
	<path style="fill:#FF0000;" d="M43.421,308.866h-2.744v-5.293c0-1.12-0.059-1.844-0.176-2.173s-0.308-0.584-0.571-0.767
		s-0.581-0.273-0.952-0.273c-0.476,0-0.901,0.13-1.279,0.391s-0.636,0.605-0.776,1.035s-0.21,1.224-0.21,2.383v4.697h-2.744v-10.371
		h2.549v1.523c0.905-1.172,2.044-1.758,3.418-1.758c0.605,0,1.159,0.109,1.66,0.327s0.88,0.496,1.138,0.835s0.436,0.723,0.537,1.152
		s0.151,1.045,0.151,1.846V308.866z"/>
	<path style="fill:#FF0000;" d="M46.204,308.866V294.55h2.744v14.316H46.204z"/>
	<path style="fill:#FF0000;" d="M51.126,303.534c0-0.911,0.225-1.794,0.674-2.646s1.085-1.504,1.909-1.953s1.743-0.674,2.759-0.674
		c1.569,0,2.854,0.51,3.857,1.528s1.504,2.307,1.504,3.862c0,1.569-0.507,2.869-1.519,3.901s-2.287,1.548-3.823,1.548
		c-0.95,0-1.856-0.215-2.72-0.645s-1.519-1.06-1.968-1.89S51.126,304.726,51.126,303.534z M53.938,303.681
		c0,1.028,0.244,1.816,0.732,2.363s1.091,0.82,1.807,0.82s1.317-0.273,1.802-0.82s0.728-1.341,0.728-2.383
		c0-1.016-0.243-1.797-0.728-2.344s-1.086-0.82-1.802-0.82s-1.318,0.273-1.807,0.82S53.938,302.652,53.938,303.681z"/>
	<path style="fill:#FF0000;" d="M73.021,301.562l-2.705,0.488c-0.091-0.54-0.298-0.947-0.62-1.221s-0.74-0.41-1.255-0.41
		c-0.684,0-1.229,0.236-1.636,0.708s-0.61,1.262-0.61,2.368c0,1.23,0.206,2.1,0.62,2.607s0.969,0.762,1.665,0.762
		c0.521,0,0.947-0.148,1.279-0.444s0.566-0.806,0.703-1.528l2.695,0.459c-0.28,1.237-0.817,2.171-1.611,2.803
		s-1.858,0.947-3.193,0.947c-1.517,0-2.726-0.479-3.628-1.436s-1.353-2.282-1.353-3.975c0-1.712,0.452-3.045,1.357-3.999
		s2.129-1.431,3.672-1.431c1.263,0,2.267,0.271,3.013,0.815S72.695,300.448,73.021,301.562z"/>
	<path style="fill:#FF0000;" d="M75.003,308.866V294.55h2.744v7.598l3.213-3.652h3.379l-3.545,3.789l3.799,6.582h-2.959
		l-2.607-4.658l-1.279,1.338v3.32H75.003z"/>
</g>
</svg>
