<?xml version="1.0" encoding="utf-8"?>
<!-- Generator: Adobe Illustrator 15.1.0, SVG Export Plug-In  -->
<!DOCTYPE svg PUBLIC "-//W3C//DTD SVG 1.1//EN" "http://www.w3.org/Graphics/SVG/1.1/DTD/svg11.dtd" [
	<!ENTITY ns_flows "http://ns.adobe.com/Flows/1.0/">
]>
<svg version="1.1"
	 xmlns="http://www.w3.org/2000/svg" xmlns:xlink="http://www.w3.org/1999/xlink" xmlns:a="http://ns.adobe.com/AdobeSVGViewerExtensions/3.0/"
	 x="0px" y="0px" width="106px" height="220px" viewBox="-0.862 -0.001 106 220"
	 overflow="visible" enable-background="new -0.862 -0.001 106 220" xml:space="preserve">
<defs>
</defs>
<path opacity="0.25" fill-rule="evenodd" clip-rule="evenodd" fill="#FFFFFF" d="M102.933,170.041c1,1.552,1.587,3.395,1.587,5.378
	v32.109c0,5.494-4.451,9.947-9.945,9.947H25.467c-4.912,0-9.89-7.129-11.947-9.947l-12-16.199l12-15.91
	c1.267-1.918,7.035-9.947,11.947-9.947h-0.52c-5.631,0-11.635,8.658-12.745,10.344l-12,15.91c-0.268,0.354-0.27,0.842-0.006,1.197
	l11.996,16.193l0.259,0.355c2.36,3.246,7.271,10.002,12.496,10.002h69.107c6.035,0,10.945-4.91,10.945-10.947v-32.109
	C105,174.037,104.228,171.838,102.933,170.041z"/>
<path opacity="0.5" fill-rule="evenodd" clip-rule="evenodd" fill="#FFFFFF" d="M24.947,164.475
	c-5.226,0-10.136-6.756-12.496-10.002l-0.259-0.355L0.196,137.924c-0.264-0.355-0.262-0.844,0.006-1.197l12-15.91
	c1.11-1.686,7.114-10.344,12.745-10.344h69.107c6.035,0,10.945,4.911,10.945,10.946v32.109c0,6.037-4.91,10.947-10.945,10.947
	H24.947z"/>
<path opacity="0.5" fill-rule="evenodd" clip-rule="evenodd" fill="#FFFFFF" d="M24.947,109.476
	c-5.226,0-10.136-6.756-12.496-10.002l-0.259-0.355L0.196,82.925c-0.264-0.356-0.262-0.844,0.006-1.198l12-15.91
	c1.11-1.685,7.114-10.344,12.745-10.344h69.107c6.035,0,10.945,4.91,10.945,10.946v32.109c0,6.036-4.91,10.947-10.945,10.947H24.947
	z"/>
<path opacity="0.5" fill-rule="evenodd" clip-rule="evenodd" fill="#FFFFFF" d="M24.947,54.5c-5.226,0-10.136-6.756-12.496-10.002
	l-0.259-0.355L0.196,27.949c-0.264-0.356-0.262-0.844,0.006-1.198l12-15.91c1.11-1.685,7.114-10.344,12.745-10.344h69.107
	c6.035,0,10.945,4.91,10.945,10.946v32.109c0,6.036-4.91,10.947-10.945,10.947H24.947z"/>
<path opacity="0.5" fill-rule="evenodd" clip-rule="evenodd" fill="#FFFFFF" d="M25.342,54.5c-5.227,0-10.137-6.756-12.497-10.002
	l-0.259-0.355L0.59,27.949c-0.264-0.356-0.262-0.844,0.006-1.198l12-15.91c1.11-1.685,7.114-10.344,12.746-10.344h69.105
	c6.037,0,10.947,4.91,10.947,10.946v32.109c0,6.036-4.91,10.947-10.947,10.947H25.342z"/>
<linearGradient id="SVGID_1_" gradientUnits="userSpaceOnUse" x1="-1120.7759" y1="0.2256" x2="-1120.7759" y2="52.5619" gradientTransform="matrix(-1 0 0 1 -1067.7559 0)">
	<stop  offset="0" style="stop-color:#BFDAF0"/>
	<stop  offset="0.5" style="stop-color:#8BBFE6"/>
	<stop  offset="0.51" style="stop-color:#63A8DD"/>
	<stop  offset="1" style="stop-color:#63A8DD"/>
</linearGradient>
<path fill-rule="evenodd" clip-rule="evenodd" fill="url(#SVGID_1_)" stroke="#145784" stroke-width="0.9946" stroke-miterlimit="10" d="
	M13.52,42.553c2.058,2.818,7.035,9.947,11.947,9.947h69.107c5.494,0,9.945-4.453,9.945-9.947V10.444
	c0-5.493-4.451-9.946-9.945-9.946H25.467c-4.912,0-10.681,8.029-11.947,9.946l-12,15.911L13.52,42.553z"/>
<linearGradient id="SVGID_10_" gradientUnits="userSpaceOnUse" x1="-1120.7759" y1="55.2012" x2="-1120.7759" y2="107.5374" gradientTransform="matrix(-1 0 0 1 -1067.7559 0)">
	<stop  offset="0" style="stop-color:#80B2DD"/>
	<stop  offset="0.5" style="stop-color:#64A2D5"/>
	<stop  offset="0.51" style="stop-color:#5489CD"/>
	<stop  offset="1" style="stop-color:#5891D0"/>
</linearGradient>
<path fill-rule="evenodd" clip-rule="evenodd" fill="url(#SVGID_10_)" stroke="#145784" stroke-miterlimit="10" d="M13.52,97.529
	c2.058,2.818,7.035,9.947,11.947,9.947h69.107c5.494,0,9.945-4.453,9.945-9.947V65.419c0-5.493-4.451-9.946-9.945-9.946H25.467
	c-4.912,0-10.681,8.029-11.947,9.946l-12,15.911L13.52,97.529z"/>
<linearGradient id="SVGID_11_" gradientUnits="userSpaceOnUse" x1="-1120.7759" y1="110.2012" x2="-1120.7759" y2="162.5365" gradientTransform="matrix(-1 0 0 1 -1067.7559 0)">
	<stop  offset="0" style="stop-color:#799FC6"/>
	<stop  offset="0.5" style="stop-color:#4A7BB0"/>
	<stop  offset="0.51" style="stop-color:#3A62A0"/>
	<stop  offset="1" style="stop-color:#3F6BA6"/>
</linearGradient>
<path fill-rule="evenodd" clip-rule="evenodd" fill="url(#SVGID_11_)" stroke="#145784" stroke-miterlimit="10" d="M13.52,152.529
	c2.058,2.818,7.035,9.947,11.947,9.947h69.107c5.494,0,9.945-4.453,9.945-9.947v-32.109c0-5.493-4.451-9.946-9.945-9.946H25.467
	c-4.912,0-10.681,8.029-11.947,9.946l-12,15.911L13.52,152.529z"/>
<path opacity="0.5" fill-rule="evenodd" clip-rule="evenodd" fill="none" stroke="#575756" stroke-width="0.9946" stroke-miterlimit="10" d="
	M13.52,207.528c2.058,2.818,7.035,9.947,11.947,9.947h69.107c5.494,0,9.945-4.453,9.945-9.947v-32.109
	c0-5.494-4.451-9.947-9.945-9.947H25.467c-4.912,0-10.681,8.029-11.947,9.947l-12,15.91L13.52,207.528z"/>
</svg>
