<?xml version="1.0" encoding="utf-8"?>
<!-- Generator: Adobe Illustrator 15.1.0, SVG Export Plug-In  -->
<!DOCTYPE svg PUBLIC "-//W3C//DTD SVG 1.1//EN" "http://www.w3.org/Graphics/SVG/1.1/DTD/svg11.dtd" [
	<!ENTITY ns_flows "http://ns.adobe.com/Flows/1.0/">
]>
<svg version="1.1"
	 xmlns="http://www.w3.org/2000/svg" xmlns:xlink="http://www.w3.org/1999/xlink" xmlns:a="http://ns.adobe.com/AdobeSVGViewerExtensions/3.0/"
	 x="0px" y="0px" width="50px" height="50px" viewBox="-12.076 -9.963 50 50"
	 overflow="visible" enable-background="new -12.076 -9.963 50 50" xml:space="preserve">
<defs>
</defs>
<g>
	<g opacity="0.7">
		<path fill-rule="evenodd" clip-rule="evenodd" d="M12.837,0c0.058,0,0.115,0,0.172,0c4.264,3.807,8.54,7.603,12.837,11.372
			c0,0.03,0,0.059,0,0.088c-0.478,0.439-0.881,0.956-1.292,1.463C20.625,9.617,16.86,6.144,13.01,2.757
			C10.928,4.314,9.091,6.138,7.151,7.84c-1.946,1.708-3.853,3.439-5.859,5.083C0.881,12.416,0.478,11.899,0,11.46
			c0-0.029,0-0.058,0-0.088C4.298,7.603,8.576,3.809,12.837,0z"/>
		<path fill-rule="evenodd" clip-rule="evenodd" d="M3.877,1.638c1.092,0,2.183,0,3.274,0c-0.096,0.69,0.082,1.293-0.086,1.809
			c-0.149,0.46-1.148,1.271-1.551,1.638C4.914,5.628,4.312,6.085,3.877,6.376C3.877,4.796,3.877,3.216,3.877,1.638z"/>
		<path fill-rule="evenodd" clip-rule="evenodd" d="M21.711,24.469c-1.98,0-3.963,0-5.945,0c-0.056-1.752,0.114-3.731-0.085-5.342
			c-0.611-0.429-1.737-0.259-2.757-0.259c-0.983,0-2.071-0.105-2.757,0.172c-0.196,1.644-0.032,3.645-0.085,5.429
			c-1.982,0-3.963,0-5.945,0c-0.32-0.234-0.224-0.53-0.259-0.947c-0.287-3.381,0.216-7.479,0-11.028
			c2.968-2.777,6.02-5.469,9.133-8.1c2.055,2.034,4.512,3.983,6.807,6.031c0.463,0.415,2.012,1.639,2.153,2.155
			c0.188,0.684,0,1.799,0,2.756c0,2.56,0.215,6.135,0,8.271C21.939,23.913,22.038,24.211,21.711,24.469z"/>
	</g>
	<g>
		<g>
			<path fill-rule="evenodd" clip-rule="evenodd" fill="#FFFFFF" d="M12.837,1c0.058,0,0.115,0,0.172,0
				c4.264,3.807,8.54,7.603,12.837,11.372c0,0.03,0,0.059,0,0.088c-0.478,0.439-0.881,0.956-1.292,1.463
				C20.625,10.617,16.86,7.144,13.01,3.757C10.928,5.314,9.091,7.138,7.151,8.84c-1.946,1.708-3.853,3.439-5.859,5.083
				C0.881,13.416,0.478,12.899,0,12.46c0-0.029,0-0.058,0-0.088C4.298,8.603,8.576,4.809,12.837,1z"/>
			<path fill-rule="evenodd" clip-rule="evenodd" fill="#FFFFFF" d="M3.877,2.638c1.092,0,2.183,0,3.274,0
				c-0.096,0.69,0.082,1.293-0.086,1.809c-0.149,0.46-1.148,1.271-1.551,1.638C4.914,6.628,4.312,7.085,3.877,7.376
				C3.877,5.796,3.877,4.216,3.877,2.638z"/>
			<path fill-rule="evenodd" clip-rule="evenodd" fill="#FFFFFF" d="M21.711,25.469c-1.98,0-3.963,0-5.945,0
				c-0.056-1.752,0.114-3.731-0.085-5.342c-0.611-0.429-1.737-0.259-2.757-0.259c-0.983,0-2.071-0.105-2.757,0.172
				c-0.196,1.644-0.032,3.645-0.085,5.429c-1.982,0-3.963,0-5.945,0c-0.32-0.234-0.224-0.53-0.259-0.947
				c-0.287-3.381,0.216-7.479,0-11.028c2.968-2.777,6.02-5.469,9.133-8.1c2.055,2.034,4.512,3.983,6.807,6.031
				c0.463,0.415,2.012,1.639,2.153,2.155c0.188,0.684,0,1.799,0,2.756c0,2.56,0.215,6.135,0,8.271
				C21.939,24.913,22.038,25.211,21.711,25.469z"/>
		</g>
	</g>
</g>
</svg>
