<?xml version="1.0" encoding="utf-8"?>
<!-- Generator: Adobe Illustrator 15.1.0, SVG Export Plug-In  -->
<!DOCTYPE svg PUBLIC "-//W3C//DTD SVG 1.1//EN" "http://www.w3.org/Graphics/SVG/1.1/DTD/svg11.dtd" [
	<!ENTITY ns_flows "http://ns.adobe.com/Flows/1.0/">
]>
<svg version="1.1"
	 xmlns="http://www.w3.org/2000/svg" xmlns:xlink="http://www.w3.org/1999/xlink" xmlns:a="http://ns.adobe.com/AdobeSVGViewerExtensions/3.0/"
	 x="0px" y="0px" width="50px" height="50px" viewBox="-12.342 -9.987 50 50"
	 overflow="visible" enable-background="new -12.342 -9.987 50 50" xml:space="preserve">
<defs>
</defs>
<g id="_x35_RnOXy_2_">
	<g opacity="0.7">
		<path fill-rule="evenodd" clip-rule="evenodd" d="M19.149,0c1.406,0,2.813,0,4.22,0c1.913,0.633,1.406,3.42,1.406,6.06
			c0,3.321,0,6.165,0,9.521c0,1.547,0.299,3.627-0.325,4.543c-0.483,0.711-3.969,1.262-5.517,0.649
			c-1.602-0.632-1.083-3.281-1.083-5.625c0-3.166,0-6.279,0-9.413C17.851,2.97,17.43,0.49,19.149,0z"/>
		<path fill-rule="evenodd" clip-rule="evenodd" d="M10.278,3.139c0.508-0.166,4.306-0.404,5.084,0.107
			c0.88,0.578,0.649,3.011,0.649,4.868c0,1.739,0,3.229,0,4.653c0,2.136,0.764,7.479-0.649,8.33
			c-0.709,0.426-5.065,0.453-5.734-0.217c-0.525-0.524-0.433-2.564-0.433-4.003c0-2.38,0-6.354,0-8.764
			C9.196,6.266,8.742,3.638,10.278,3.139z"/>
		<path fill-rule="evenodd" clip-rule="evenodd" d="M1.623,10.494c0.685-0.223,4.342-0.342,5.085,0.108
			c1.078,0.655,0.757,3.354,0.757,5.302c0,2.166,0.361,4.52-0.757,5.193c-0.935,0.562-5.395,0.465-5.951-0.434
			c-0.431-0.696-0.216-2.887-0.216-4.543C0.541,13.548-0.038,11.035,1.623,10.494z"/>
		<path fill-rule="evenodd" clip-rule="evenodd" d="M25.316,23.91c0,0.253,0,0.505,0,0.758c-0.414,0.524-1.932,0.324-3.03,0.324
			c-6.591,0-12.927,0-19.474,0c-0.938,0-2.124,0.294-2.813-0.433c0-0.181,0-0.361,0-0.541c0.271-0.536,0.695-0.379,1.298-0.433
			c3.694-0.331,8.005,0,12.117,0c3.133,0,6.154,0,9.088,0C23.446,23.586,24.523,23.341,25.316,23.91z"/>
	</g>
	<g>
		<g>
			<g>
				<path fill-rule="evenodd" clip-rule="evenodd" fill="#FFFFFF" d="M19.149,1c1.406,0,2.813,0,4.22,0
					c1.913,0.633,1.406,3.42,1.406,6.06c0,3.321,0,6.165,0,9.521c0,1.547,0.299,3.627-0.325,4.543
					c-0.483,0.711-3.969,1.262-5.517,0.649c-1.602-0.632-1.083-3.281-1.083-5.625c0-3.166,0-6.279,0-9.413
					C17.851,3.97,17.43,1.49,19.149,1z"/>
				<path fill-rule="evenodd" clip-rule="evenodd" fill="#FFFFFF" d="M10.278,4.139c0.508-0.166,4.306-0.404,5.084,0.107
					c0.88,0.578,0.649,3.011,0.649,4.868c0,1.739,0,3.229,0,4.653c0,2.136,0.764,7.479-0.649,8.33
					c-0.709,0.426-5.065,0.453-5.734-0.217c-0.525-0.524-0.433-2.564-0.433-4.003c0-2.38,0-6.354,0-8.764
					C9.196,7.266,8.742,4.638,10.278,4.139z"/>
				<path fill-rule="evenodd" clip-rule="evenodd" fill="#FFFFFF" d="M1.623,11.494c0.685-0.223,4.342-0.342,5.085,0.108
					c1.078,0.655,0.757,3.354,0.757,5.302c0,2.166,0.361,4.52-0.757,5.193c-0.935,0.562-5.395,0.465-5.951-0.434
					c-0.431-0.696-0.216-2.887-0.216-4.543C0.541,14.548-0.038,12.035,1.623,11.494z"/>
				<path fill-rule="evenodd" clip-rule="evenodd" fill="#FFFFFF" d="M25.316,24.91c0,0.253,0,0.505,0,0.758
					c-0.414,0.524-1.932,0.324-3.03,0.324c-6.591,0-12.927,0-19.474,0c-0.938,0-2.124,0.294-2.813-0.433c0-0.181,0-0.361,0-0.541
					c0.271-0.536,0.695-0.379,1.298-0.433c3.694-0.331,8.005,0,12.117,0c3.133,0,6.154,0,9.088,0
					C23.446,24.586,24.523,24.341,25.316,24.91z"/>
			</g>
		</g>
	</g>
</g>
</svg>
